HIERARCHY
ROOT Hips
{
	OFFSET 0.00000 0.00000 0.00000
	CHANNELS 6 Xposition Yposition Zposition Zrotation Yrotation Xrotation 
	JOINT LHipJoint
	{
		OFFSET 0 0 0
		CHANNELS 3 Zrotation Yrotation Xrotation
		JOINT LeftUpLeg
		{
			OFFSET 1.53927 -1.56553 0.51726
			CHANNELS 3 Zrotation Yrotation Xrotation
			JOINT LeftLeg
			{
				OFFSET 2.38199 -6.54447 0.00000
				CHANNELS 3 Zrotation Yrotation Xrotation
				JOINT LeftFoot
				{
					OFFSET 2.35499 -6.47028 0.00000
					CHANNELS 3 Zrotation Yrotation Xrotation
					JOINT LeftToeBase
					{
						OFFSET 0.13641 -0.37478 1.84251
						CHANNELS 3 Zrotation Yrotation Xrotation
						End Site
						{
							OFFSET 0.00000 -0.00000 0.95212
						}
					}
				}
			}
		}
	}
	JOINT RHipJoint
	{
		OFFSET 0 0 0
		CHANNELS 3 Zrotation Yrotation Xrotation
		JOINT RightUpLeg
		{
			OFFSET -1.43919 -1.56553 0.51726
			CHANNELS 3 Zrotation Yrotation Xrotation
			JOINT RightLeg
			{
				OFFSET -2.34860 -6.45274 0.00000
				CHANNELS 3 Zrotation Yrotation Xrotation
				JOINT RightFoot
				{
					OFFSET -2.25563 -6.19730 0.00000
					CHANNELS 3 Zrotation Yrotation Xrotation
					JOINT RightToeBase
					{
						OFFSET -0.19755 -0.54277 1.84912
						CHANNELS 3 Zrotation Yrotation Xrotation
						End Site
						{
							OFFSET -0.00000 -0.00000 0.97032
						}
					}
				}
			}
		}
	}
	JOINT LowerBack
	{
		OFFSET 0 0 0
		CHANNELS 3 Zrotation Yrotation Xrotation
		JOINT Spine
		{
			OFFSET -0.06402 1.88434 -0.00445
			CHANNELS 3 Zrotation Yrotation Xrotation
			JOINT Spine1
			{
				OFFSET 0.00756 1.88511 0.04237
				CHANNELS 3 Zrotation Yrotation Xrotation
				JOINT Neck
				{
					OFFSET 0 0 0
					CHANNELS 3 Zrotation Yrotation Xrotation
					JOINT Neck1
					{
						OFFSET -0.06230 1.34710 0.03308
						CHANNELS 3 Zrotation Yrotation Xrotation
						JOINT Head
						{
							OFFSET -0.02442 1.34501 -0.13654
							CHANNELS 3 Zrotation Yrotation Xrotation
							End Site
							{
								OFFSET -0.00508 1.35584 -0.05075
							}
						}
					}
				}
				JOINT LeftShoulder
				{
					OFFSET 0 0 0
					CHANNELS 3 Zrotation Yrotation Xrotation
					JOINT LeftArm
					{
						OFFSET 2.76911 0.54460 0.39412
						CHANNELS 3 Zrotation Yrotation Xrotation
						JOINT LeftForeArm
						{
							OFFSET 4.40919 -0.00000 -0.00000
							CHANNELS 3 Zrotation Yrotation Xrotation
							JOINT LeftHand
							{
								OFFSET 3.03857 -0.00000 -0.00000
								CHANNELS 3 Zrotation Yrotation Xrotation
								JOINT LeftFingerBase
								{
									OFFSET 0 0 0
									CHANNELS 3 Zrotation Yrotation Xrotation
									JOINT LeftHandIndex1
									{
										OFFSET 0.52321 -0.00000 -0.00000
										CHANNELS 3 Zrotation Yrotation Xrotation
										End Site
										{
											OFFSET 0.42182 -0.00000 -0.00000
										}
									}
								}
								JOINT LThumb
								{
									OFFSET 0 0 0
									CHANNELS 3 Zrotation Yrotation Xrotation
									End Site
									{
										OFFSET 0.42826 -0.00000 0.42826
									}
								}
							}
						}
					}
				}
				JOINT RightShoulder
				{
					OFFSET 0 0 0
					CHANNELS 3 Zrotation Yrotation Xrotation
					JOINT RightArm
					{
						OFFSET -2.99050 0.75949 0.48975
						CHANNELS 3 Zrotation Yrotation Xrotation
						JOINT RightForeArm
						{
							OFFSET -4.61969 -0.00000 -0.00000
							CHANNELS 3 Zrotation Yrotation Xrotation
							JOINT RightHand
							{
								OFFSET -3.09382 -0.00000 -0.00000
								CHANNELS 3 Zrotation Yrotation Xrotation
								JOINT RightFingerBase
								{
									OFFSET 0 0 0
									CHANNELS 3 Zrotation Yrotation Xrotation
									JOINT RightHandIndex1
									{
										OFFSET -0.50090 -0.00000 -0.00000
										CHANNELS 3 Zrotation Yrotation Xrotation
										End Site
										{
											OFFSET -0.40384 -0.00000 -0.00000
										}
									}
								}
								JOINT RThumb
								{
									OFFSET 0 0 0
									CHANNELS 3 Zrotation Yrotation Xrotation
									End Site
									{
										OFFSET -0.41000 -0.00000 0.41000
									}
								}
							}
						}
					}
				}
			}
		}
	}
}
MOTION
Frames: 12
Frame Time: .0083333
-21.7807 15.904 -1.2743 0 0 0 0 0 0 -21 0 0 0 0 0 0 0 0 0 0 0 0 0 0 21 0 0 0 0 0 0 0 0 0 0 0 0 0 0 0 0 0 0 0 0 0 0 -16 0 0 21 0 0 11 0 0 0 -8 0 0 0 0 0 0 0 0 0 0 0 0 0 0 0 0 0 0 0 0 8 0 0 0 0 0 0 0 0 0 0 0 0 0 0 0 0 0
-21.7807 15.9040 -1.2743 99.5231 -88.4950 -89.8308 0.0000 0.0000 0.0000 -18.7065 -26.7371 -7.5063 2.1295 9.1307 26.2050 -0.4261 18.1792 -21.6914 0.4041 4.0811 11.3049 0.0000 0.0000 0.0000 16.9657 21.6324 -11.4073 -2.1292 -9.1301 26.2031 -1.0780 -7.7832 -23.8820 -0.5184 -4.6146 12.8125 -2.1327 -0.5345 -6.8146 0.1579 -0.8712 -6.8266 1.3296 -0.4513 -3.2135 0.8732 0.4309 -1.6111 -5.7086 0.9273 11.8985 -2.0511 0.1452 4.2458 0.0000 -0.0000 0.0000 -95.4463 19.2128 7.9745 18.1681 -28.3719 -4.6288 -0.0000 -0.0000 23.2544 23.5376 -17.8198 -7.5929 -7.1250 0.0000 -0.0000 -2.9312 10.6781 2.3404 0.0000 -0.0000 0.0000 90.0368 -18.1465 23.3526 -15.3835 24.6777 -3.3845 0.0000 0.0000 17.6470 -16.8696 -43.0111 11.6871 7.1250 -0.0000 -0.0000 32.8783 -71.8783 -21.6997
-21.7835 15.9046 -1.2898 96.6030 -88.0143 -86.6148 0.0000 0.0000 0.0000 -19.0778 -27.0277 -7.5638 2.0711 9.0126 25.8349 -0.4430 18.2223 -21.5826 0.4080 4.1005 11.3596 0.0000 0.0000 0.0000 16.3422 21.7597 -11.9069 -2.1907 -9.2524 26.5881 -1.1434 -7.4328 -24.1641 -0.5715 -4.8414 13.4566 -2.6405 -0.5019 -7.2306 -0.0293 -0.8068 -6.8621 1.4187 -0.4085 -3.0224 0.9191 0.3612 -1.4187 -5.7206 0.8251 11.7248 -2.0626 0.1032 4.1416 -0.0000 0.0000 0.0000 -95.3304 19.2894 8.3430 18.2721 -28.5042 -4.6784 -0.0000 -0.0000 22.9043 23.5571 -17.9019 -7.6333 -7.1250 0.0000 -0.0000 -2.9250 10.5875 2.3409 -0.0000 0.0000 0.0000 90.1980 -18.1940 23.3416 -15.4491 24.7680 -3.4119 0.0000 0.0000 17.4812 -16.8447 -43.0569 11.6790 7.1250 -0.0000 -0.0000 33.0004 -71.9052 -21.8042
-21.7855 15.9103 -1.3037 95.8138 -87.7182 -85.7578 0.0000 0.0000 0.0000 -19.3264 -27.0371 -7.5611 2.0478 8.9650 25.6858 -0.4399 18.1835 -21.5490 0.4345 4.2301 11.7249 0.0000 0.0000 0.0000 16.0134 21.5715 -12.1853 -2.2137 -9.2978 26.7313 -1.1482 -7.1624 -24.0145 -0.5537 -4.7668 13.2447 -3.0258 -0.4823 -7.2534 -0.1112 -0.7691 -6.9121 1.5518 -0.3766 -3.0636 0.7502 0.3344 -1.3574 -5.5031 0.7751 11.7011 -1.9581 0.0825 4.1142 0.0000 -0.0000 0.0000 -95.1964 19.3862 8.7481 18.3354 -28.5845 -4.7086 -0.0000 -0.0000 22.5240 23.7383 -17.9624 -7.7234 -7.1250 0.0000 -0.0000 -2.8113 10.4962 2.2549 0.0000 -0.0000 0.0000 90.2685 -18.3557 23.3227 -15.5327 24.8829 -3.4470 0.0000 0.0000 17.4822 -17.1824 -43.0364 11.9162 7.1250 -0.0000 -0.0000 32.5762 -72.0068 -21.5763
-21.7888 15.9091 -1.3143 96.1145 -87.6950 -86.2638 0.0000 0.0000 0.0000 -19.3975 -26.7335 -7.3530 2.0312 8.9309 25.5793 -0.4219 18.0140 -21.4536 0.4368 4.2410 11.7556 0.0000 0.0000 0.0000 16.1062 21.1658 -12.1670 -2.2313 -9.3321 26.8399 -1.1056 -7.2704 -23.7410 -0.4523 -4.3145 11.9631 -3.0465 -0.4190 -7.0731 -0.1549 -0.6826 -6.8320 1.5232 -0.3309 -3.0837 0.5318 0.2768 -1.4241 -5.2163 0.6831 11.6937 -1.8242 0.0410 4.1152 0.0000 -0.0000 0.0000 -95.0887 19.5250 9.0497 18.5866 -28.9018 -4.8294 -0.0000 -0.0000 22.2289 23.7052 -17.8837 -7.6791 -7.1250 0.0000 -0.0000 -2.8264 10.5854 2.2619 0.0000 -0.0000 0.0000 90.4107 -18.4124 23.1422 -15.6195 25.0020 -3.4836 0.0000 0.0000 17.5653 -17.5152 -42.7443 12.0901 7.1250 -0.0000 -0.0000 31.6014 -71.8927 -20.8168
-21.7914 15.9067 -1.3229 94.7816 -87.9992 -85.1550 0.0000 0.0000 0.0000 -19.1064 -26.4376 -7.1861 2.0304 8.9292 25.5741 -0.4083 17.8726 -21.3597 0.4124 4.1223 11.4209 0.0000 0.0000 0.0000 16.5870 21.0092 -11.9326 -2.2329 -9.3353 26.8499 -1.0723 -7.5297 -23.6512 -0.4090 -4.1053 11.3732 -2.7667 -0.4268 -6.8132 -0.0396 -0.7033 -6.7831 1.4870 -0.3458 -3.1747 0.5452 0.3037 -1.3422 -5.3169 0.7235 11.5132 -1.8555 0.0624 4.0373 0.0000 0.0000 0.0000 -95.1891 19.7586 9.0847 18.9062 -29.3019 -4.9848 -0.0000 -0.0000 22.0218 23.3282 -17.6636 -7.4550 -7.1250 0.0000 -0.0000 -3.0561 10.8749 2.4282 0.0000 0.0000 0.0000 90.3605 -18.5572 23.2985 -15.7810 25.2228 -3.5521 0.0000 0.0000 17.5354 -17.3390 -42.7114 11.9572 7.1250 -0.0000 -0.0000 31.7372 -71.8056 -20.8530
-21.7916 15.9091 -1.3393 90.6618 -88.0999 -80.9247 0.0000 0.0000 0.0000 -18.8127 -26.2613 -7.5036 2.0436 8.9563 25.6586 -0.4054 17.7077 -21.1089 0.3678 3.8957 10.7835 0.0000 0.0000 0.0000 16.7257 21.1931 -11.9725 -2.2246 -9.3191 26.7986 -1.0619 -7.7279 -23.7092 -0.4293 -4.2051 11.6543 -2.6307 -0.4518 -6.9763 -0.0990 -0.7362 -6.7318 1.3459 -0.3712 -3.0301 0.3764 0.3555 -1.6137 -5.0762 0.7889 11.6050 -1.7439 0.0946 4.1211 0.0000 0.0000 0.0000 -95.0695 19.7466 8.9729 19.1664 -29.6250 -5.1129 -0.0000 -0.0000 22.1493 22.9588 -17.6067 -7.3020 -7.1250 0.0000 -0.0000 -3.2947 10.9879 2.6107 0.0000 0.0000 0.0000 90.4507 -18.4807 23.6600 -15.8672 25.3402 -3.5889 0.0000 0.0000 17.1935 -17.4259 -42.8963 12.0598 7.1250 -0.0000 -0.0000 32.0117 -71.9817 -21.1632
-21.7896 15.9092 -1.3506 86.1965 -88.2028 -76.3083 0.0000 0.0000 0.0000 -18.5062 -26.1938 -7.8502 2.0602 8.9904 25.7653 -0.4019 17.5664 -20.9047 0.3278 3.6797 10.1771 0.0000 0.0000 0.0000 16.8318 21.0998 -12.1723 -2.2150 -9.3002 26.7389 -1.0648 -7.6305 -23.6617 -0.4407 -4.2597 11.8084 -2.4898 -0.4905 -7.1306 -0.1170 -0.7899 -6.7164 1.2442 -0.4059 -2.9271 0.4503 0.3582 -1.8629 -4.9730 0.7885 11.7424 -1.7260 0.0980 4.2190 -0.0000 0.0000 0.0000 -95.0935 19.9764 8.7689 19.7248 -30.3093 -5.3917 -0.0000 -0.0000 22.2616 22.6531 -17.7593 -7.2547 -7.1250 0.0000 -0.0000 -3.5074 10.8683 2.7885 -0.0000 0.0000 0.0000 90.4090 -18.3716 24.0479 -15.8926 25.3748 -3.5998 0.0000 0.0000 16.8818 -17.3765 -42.9483 12.0359 7.1250 -0.0000 -0.0000 32.1747 -72.0054 -21.2935
-21.7884 15.9075 -1.3601 82.5345 -88.2708 -72.5819 0.0000 0.0000 0.0000 -18.3069 -26.1184 -8.0423 2.0680 9.0064 25.8153 -0.3992 17.4752 -20.7779 0.3038 3.5436 9.7962 0.0000 0.0000 0.0000 16.9372 20.9506 -12.3056 -2.2163 -9.3028 26.7471 -1.0793 -7.4751 -23.6701 -0.4654 -4.3757 12.1361 -2.3754 -0.4845 -7.1967 -0.1481 -0.7843 -6.6926 1.1473 -0.4089 -2.8668 0.8342 0.2851 -1.9436 -5.2531 0.6989 11.7178 -1.8952 0.0583 4.2302 -0.0000 -0.0000 0.0000 -95.0458 20.4704 9.0164 20.5354 -31.2820 -5.8068 -0.0000 -0.0000 21.8037 22.1502 -17.8438 -7.1102 -7.1250 0.0000 -0.0000 -3.8441 10.8483 3.0590 -0.0000 -0.0000 0.0000 90.4909 -18.3552 23.9140 -15.9879 25.5042 -3.6407 0.0000 0.0000 17.0607 -17.1780 -42.9764 11.9000 7.1250 -0.0000 -0.0000 32.4580 -71.9584 -21.4601
-21.7876 15.9071 -1.3751 79.9228 -88.2826 -69.9745 0.0000 0.0000 0.0000 -18.1737 -25.8887 -8.1935 2.0719 9.0142 25.8397 -0.3687 17.2318 -20.7091 0.2831 3.4219 9.4558 0.0000 0.0000 0.0000 17.0444 21.0378 -12.2730 -2.2233 -9.3165 26.7905 -1.0862 -7.5771 -23.8004 -0.5119 -4.5859 12.7312 -2.3159 -0.4139 -7.1219 -0.2152 -0.6954 -6.6949 1.0496 -0.3672 -2.9149 0.6830 0.2255 -2.2431 -5.0224 0.6162 12.0497 -1.8007 0.0118 4.4026 -0.0000 0.0000 0.0000 -94.8572 20.7821 9.3381 21.0709 -31.9111 -6.0874 -0.0000 -0.0000 21.4047 21.6043 -17.9817 -6.9701 -7.1250 0.0000 -0.0000 -4.2123 10.7768 3.3597 -0.0000 0.0000 0.0000 90.6330 -18.4145 23.6139 -16.0917 25.6448 -3.6856 0.0000 0.0000 17.2463 -17.2804 -42.8719 11.9505 7.1250 -0.0000 -0.0000 32.1280 -71.9119 -21.1974
-21.7912 15.9055 -1.3923 78.6007 -88.2456 -68.6383 0.0000 0.0000 0.0000 -18.0873 -25.6552 -8.3191 2.0700 9.0104 25.8280 -0.3142 16.8863 -20.7480 0.2829 3.4210 9.4530 0.0000 0.0000 0.0000 17.0896 21.0217 -12.3311 -2.2372 -9.3435 26.8760 -1.0878 -7.6320 -23.8526 -0.5376 -4.6980 13.0491 -2.3829 -0.4205 -7.3144 -0.2410 -0.6894 -6.5738 1.0579 -0.3638 -2.6816 0.5922 0.2119 -2.2024 -4.8763 0.5863 11.8772 -1.7317 0.0053 4.3282 0.0000 0.0000 0.0000 -94.7482 20.7473 9.3532 21.3862 -32.2764 -6.2549 -0.0000 -0.0000 21.1564 21.2520 -18.0947 -6.8876 -7.1250 0.0000 -0.0000 -4.4511 10.7054 3.5579 0.0000 0.0000 0.0000 90.5598 -18.2738 23.8519 -16.1728 25.7543 -3.7207 0.0000 0.0000 17.0998 -17.0203 -42.7882 11.7469 7.1250 -0.0000 -0.0000 32.2543 -71.7560 -21.1795
-21.7949 15.9026 -1.4047 78.5254 -88.1099 -68.6029 0.0000 0.0000 0.0000 -18.1942 -25.5243 -8.2923 2.0648 8.9998 25.7947 -0.2800 16.6412 -20.7311 0.2733 3.3625 9.2896 0.0000 0.0000 0.0000 17.0065 20.8521 -12.3960 -2.2529 -9.3742 26.9729 -1.0906 -7.4971 -23.7791 -0.5323 -4.6752 12.9845 -2.4682 -0.3822 -7.3907 -0.3504 -0.6286 -6.4894 0.9944 -0.3333 -2.5539 0.6816 0.1341 -2.0289 -4.9338 0.4754 11.6204 -1.7662 -0.0401 4.1985 0.0000 -0.0000 0.0000 -94.5167 20.8706 9.6522 21.7924 -32.7416 -6.4732 -0.0000 -0.0000 20.5684 20.6913 -17.8324 -6.5977 -7.1250 0.0000 -0.0000 -4.8023 11.0551 3.8061 0.0000 -0.0000 0.0000 90.5323 -18.3077 24.1567 -16.3435 25.9841 -3.7952 0.0000 0.0000 16.6831 -17.1108 -42.7626 11.8057 7.1250 -0.0000 -0.0000 32.1002 -71.7670 -21.0797
